<svg width="576" height="512" viewBox="0 0 576 512" fill="none" xmlns="http://www.w3.org/2000/svg">
<g clip-path="url(#clip0_133_28)">
<path d="M559.7 288L322.5 287.999L479.6 445.999C485.724 452.123 495.59 452.483 501.84 446.734C540.46 410.234 567.09 361.114 574.96 305.834C577.2 296.4 569.4 288 559.7 288ZM543.1 223.2C534.851 103.7 439.4 9.09999 319.9 -6.7465e-06C310.776 -0.624907 303.14 7.11299 303.14 16.24L304 240L527.7 239.999C536.9 240 544.6 232.4 543.1 223.2Z" fill="#2A4397"/>
<path opacity="0.4" d="M411.9 443.9C418.774 450.774 418.287 462.39 410.288 468.01C372.038 495.13 325.408 511.39 275.088 512.01C146.988 513.635 36.588 408.51 32.188 280.41C27.938 155.71 119.068 51.51 237.288 34.71C246.787 33.335 255.158 41.195 255.158 50.82V288.12L411.9 443.9Z" fill="#2A4397"/>
</g>
<defs>
<clipPath id="clip0_133_28">
<rect width="576" height="512" fill="white"/>
</clipPath>
</defs>
</svg>
