<svg width="448" height="512" viewBox="0 0 448 512" fill="none" xmlns="http://www.w3.org/2000/svg">
<g clip-path="url(#clip0_132_21)">
<path d="M96 384H424C437.25 384 448 373.25 448 360V32C448 14.33 433.67 0 416 0H96C42.98 0 0 42.98 0 96V416C0 469.02 42.98 512 96 512H424C437.25 512 448 501.25 448 488V472C448 458.74 437.25 448 424 448H96C78.33 448 64 433.67 64 416C64 398.3 78.33 384 96 384ZM143.1 128H335.1C344.8 128 352 135.2 352 144C352 152.8 344.8 160 336 160H144C135.2 160 128 152.8 128 144C128 135.2 135.2 128 143.1 128ZM143.1 192H335.1C344.8 192 352 199.2 352 208C352 216.8 344.8 224 336 224H144C135.2 224 128 216.8 128 208C128 199.2 135.2 192 143.1 192Z" fill="#2A4397"/>
<path opacity="0.4" d="M416 384V448H96C78.33 448 64 433.67 64 416C64 398.33 78.33 384 96 384H416Z" fill="#2A4397"/>
</g>
<defs>
<clipPath id="clip0_132_21">
<rect width="448" height="512" fill="white"/>
</clipPath>
</defs>
</svg>
