<svg width="14" height="8" viewBox="0 0 14 8" fill="none" xmlns="http://www.w3.org/2000/svg">
<path fill-rule="evenodd" clip-rule="evenodd" d="M6.6459 7.35374C6.69234 7.4003 6.74752 7.43725 6.80827 7.46245C6.86901 7.48766 6.93413 7.50063 6.9999 7.50063C7.06567 7.50063 7.13079 7.48766 7.19153 7.46245C7.25228 7.43725 7.30745 7.4003 7.3539 7.35374L13.3539 1.35374C13.4478 1.25985 13.5005 1.13252 13.5005 0.99974C13.5005 0.866964 13.4478 0.739626 13.3539 0.64574C13.26 0.551853 13.1327 0.499108 12.9999 0.499108C12.8671 0.499108 12.7398 0.551853 12.6459 0.64574L6.9999 6.29274L1.3539 0.64574C1.26001 0.551853 1.13267 0.499108 0.999899 0.499108C0.867123 0.499108 0.739786 0.551853 0.645899 0.64574C0.552013 0.739626 0.499268 0.866964 0.499268 0.99974C0.499268 1.13252 0.552013 1.25985 0.645899 1.35374L6.6459 7.35374Z" fill="white"/>
</svg>
