<svg width="16" height="16" viewBox="0 0 16 16" fill="none" xmlns="http://www.w3.org/2000/svg">
<path d="M0.58124 0.769072L3.83117 0.0190875C4.18429 -0.0621608 4.54678 0.12221 4.69053 0.453453L6.1905 3.95338C6.32175 4.25962 6.23425 4.61899 5.97488 4.82836L4.08117 6.37833C5.20615 8.77515 7.17173 10.7689 9.61855 11.9157L11.1685 10.022C11.381 9.76263 11.7373 9.67513 12.0435 9.80638L15.5434 11.3063C15.8778 11.4532 16.0622 11.8157 15.9809 12.1688L15.2309 15.4188C15.1528 15.7563 14.8528 16 14.4997 16C6.49674 16 0 9.51576 0 1.50031C0 1.15031 0.240622 0.847195 0.58124 0.769072Z" fill="white"/>
</svg>
