<svg width="19" height="14" viewBox="0 0 19 14" fill="none" xmlns="http://www.w3.org/2000/svg">
<path d="M9.33333 10.5C8.73068 10.5 8.12802 10.3023 7.61396 9.90172L0 3.98125V12.25C0 13.2161 0.78349 14 1.75 14H16.9167C17.8832 14 18.6667 13.2165 18.6667 12.25V3.98125L11.0542 9.90573C10.5401 10.3031 9.9349 10.5 9.33333 10.5ZM0.593906 2.96406L8.33037 8.98333C8.92063 9.44271 9.7475 9.44271 10.3378 8.98333L18.0742 2.96406C18.4151 2.6724 18.6667 2.22396 18.6667 1.75C18.6667 0.78349 17.8828 0 16.9167 0H1.75C0.78349 0 0 0.78349 0 1.75C0 2.22396 0.219115 2.6724 0.593906 2.96406Z" fill="white"/>
</svg>
