<svg width="576" height="512" viewBox="0 0 576 512" fill="none" xmlns="http://www.w3.org/2000/svg">
<path d="M359 303.9C354.883 327.77 337.25 343.91 311.97 349.62V360C311.97 373.25 301.22 384 287.97 384C274.72 384 263.97 373.25 263.97 360V348.59C254.472 346.371 245.07 343.34 236.59 340.283L231.934 338.627C219.464 334.189 212.904 320.467 217.344 307.987C221.8 295.5 235.5 289 248 293.4L252.875 295.15C261.7 298.3 271.7 301.9 279.3 303C296.39 305.672 310.55 302.391 311.68 295.641C312.492 290.891 312.992 288.063 281.34 279.001L274.84 277.126C256.7 271.8 208.4 257.6 216.1 208.1C221.1 184.3 238.7 168.2 264 162.5V152C264 138.8 274.8 128 288 128C301.2 128 312 138.75 312 152V163.24C317.908 164.605 324.23 166.336 331.84 168.967C344.37 173.311 351 186.967 346.68 199.497C342.336 212.017 328.71 218.687 316.15 214.337C307.869 211.462 301.43 209.696 296.49 208.915C279.61 206.227 265.43 209.54 264.27 216.306C263.6 220.4 263 223.6 288.4 231.1L294.588 232.897C320.1 240.2 367.7 253.8 359 303.9Z" fill="#232D4E"/>
<path opacity="0.4" d="M543.8 256C543.8 219.5 524.94 187.62 496.94 169.25C503.815 136.37 494.423 100.62 468.8 75C443.18 49.25 407.19 39.87 374.44 46.75C355.1 18.75 324.1 0 287.8 0C251.5 0 219.5 18.75 200.1 46.75C168.1 39.88 132.5 49.38 106.8 75C81.0901 100.6 71.6101 136.5 78.4801 169.3C50.3601 187.8 31.8401 219.8 31.8401 256C31.8401 292.2 50.4801 324.25 78.4801 342.75C71.6101 375.6 81.2101 411.4 106.8 437C132.42 462.75 167.94 472.13 200.94 465.25C219.5 493.4 251.6 512 287.8 512C324.18 512 355.94 493.25 374.44 465.25C407.44 472.125 443.17 462.625 468.8 437C494.55 411.38 503.82 375.5 496.94 342.75C525.1 324.3 543.8 292.3 543.8 256ZM359 303.9C354.883 327.77 337.25 343.91 311.97 349.62V360C311.97 373.25 301.22 384 287.97 384C274.72 384 263.97 373.25 263.97 360V348.59C254.472 346.371 245.07 343.34 236.59 340.283L231.934 338.627C219.464 334.189 212.904 320.467 217.344 307.987C221.8 295.5 235.5 289 248 293.4L252.875 295.15C261.7 298.3 271.7 301.9 279.3 303C296.39 305.672 310.55 302.391 311.68 295.641C312.493 290.891 312.992 288.063 281.34 279.001L274.84 277.126C256.7 271.8 208.4 257.6 216.1 208.1C221.1 184.3 238.7 168.2 264 162.5V152C264 138.8 274.8 128 288 128C301.2 128 312 138.75 312 152V163.24C317.908 164.605 324.23 166.336 331.84 168.967C344.37 173.311 351 186.967 346.68 199.497C342.336 212.017 328.71 218.687 316.15 214.337C307.869 211.462 301.43 209.696 296.49 208.915C279.61 206.227 265.43 209.54 264.27 216.306C263.6 220.4 263 223.6 288.4 231.1L294.588 232.897C320.1 240.2 367.7 253.8 359 303.9Z" fill="#232D4E"/>
</svg>
