<svg width="18" height="19" viewBox="0 0 18 19" fill="none" xmlns="http://www.w3.org/2000/svg">
<path d="M16.3636 0.353271H1.63636C0.732273 0.353271 0 1.08554 0 1.98964V16.7169C0 17.621 0.732273 18.3533 1.63636 18.3533H16.3636C17.2677 18.3533 18 17.621 18 16.7169V1.98964C18 1.08554 17.2677 0.353271 16.3636 0.353271ZM5.68964 15.0805H3.276V7.31436H5.68964V15.0805ZM4.45827 6.20409C3.68018 6.20409 3.051 5.57327 3.051 4.79682C3.051 4.02036 3.681 3.39036 4.45827 3.39036C5.23391 3.39036 5.86473 4.02118 5.86473 4.79682C5.86473 5.57327 5.23391 6.20409 4.45827 6.20409ZM14.7305 15.0805H12.3185V11.3038C12.3185 10.403 12.3022 9.24445 11.0643 9.24445C9.80836 9.24445 9.61527 10.2255 9.61527 11.2384V15.0805H7.20327V7.31436H9.51873V8.37554H9.55145C9.87382 7.76518 10.6609 7.12127 11.835 7.12127C14.2789 7.12127 14.7305 8.72982 14.7305 10.8211V15.0805Z" fill="#2A4397"/>
</svg>
