<svg width="448" height="512" viewBox="0 0 448 512" fill="none" xmlns="http://www.w3.org/2000/svg">
<path d="M336 335.1H112C103.164 335.1 96 342.27 96 351.11C96 359.945 103.167 367.1 112 367.1H336C344.838 367.1 351.1 359.944 351.1 351.11C352 343.1 344.9 335.1 336 335.1ZM112 175.1H336C344.838 175.1 351.1 167.94 351.1 159.11C351.1 150.273 343.942 143.11 336 143.11H112C103.164 143.11 96 150.275 96 159.11C96.01 168.8 103.2 175.1 112 175.1ZM336 239.1H112C103.164 239.1 96 246.267 96 255.1C96 263.935 103.167 271.09 112 271.09H336C344.838 271.09 351.1 263.932 351.1 255.1C352 247.1 344.9 239.1 336 239.1Z" fill="#2A4397"/>
<path opacity="0.4" d="M390.4 3.289L352 48.03L297.62 3.29C291.87 -1.084 284.12 -1.084 278.37 3.29L224 48.03L169.6 3.289C163.85 -1.085 156.1 -1.085 150.35 3.289L96 48.03L57.63 3.289C47 -4.71 32 2.789 32 16.04V495.94C32 509.19 47 516.69 57.62 508.69L96 463.1L150.38 507.84C156.13 512.214 163.88 512.214 169.63 507.84L224 463.1L278.38 507.84C284.13 512.214 291.88 512.214 297.63 507.84L352 463.1L390.38 507.84C400.9 516.7 416 509.2 416 495.1V16.04C416 2.789 401 -4.71 390.4 3.289ZM336 367.1H112C103.164 367.1 96 359.944 96 351.11C96 342.273 103.167 335.1 112 335.1H336C344.838 335.1 351.1 342.27 351.1 351.11C352 360.8 344.9 367.1 336 367.1ZM336 271.1H112C103.164 271.1 96 263.942 96 255.11C96 246.273 103.167 239.11 112 239.11H336C344.838 239.11 351.1 246.277 351.1 255.11C352 264.8 344.9 271.1 336 271.1ZM336 175.1H112C103.164 175.1 96 167.94 96 159.11C96 150.273 103.167 143.11 112 143.11H336C344.838 143.11 351.1 150.275 351.1 159.11C352 168.8 344.9 175.1 336 175.1Z" fill="#2A4397"/>
</svg>
