<svg width="640" height="512" viewBox="0 0 640 512" fill="none" xmlns="http://www.w3.org/2000/svg">
<g clip-path="url(#clip0_174_20)">
<path d="M93.13 257.7C71.25 275.1 53 313.5 38.63 355.1L99 333.1C104.75 330.975 109.62 337.851 105.625 342.599L11 454.7C3.75 486.1 0 510.2 0 510.2C0 510.2 206.6 523.82 266.6 476.08C326.6 428.21 343.23 325.98 343.23 325.98L256.5 216.7C256.5 216.7 153.1 209.1 93.13 257.7ZM435.6 274.2L327.6 139.1C322.5 131.9 312.5 133.1 309 140.5L283.8 194.1L370.55 303.3L429.3 290.8C437.3 290.1 440.6 280.6 435.6 274.2Z" fill="#2A4397"/>
<path opacity="0.4" d="M627.7 57.24L402.5 232.44L362.68 182.3L588.38 6.69999C602.38 -4.13001 622.44 -1.58001 633.29 12.324C644.1 26.28 641.6 46.38 627.7 57.24Z" fill="#2A4397"/>
</g>
<defs>
<clipPath id="clip0_174_20">
<rect width="640" height="512" fill="white"/>
</clipPath>
</defs>
</svg>
