<svg width="448" height="512" viewBox="0 0 448 512" fill="none" xmlns="http://www.w3.org/2000/svg">
<g clip-path="url(#clip0_174_17)">
<path d="M400 64H352V31.1C352 14.33 337.7 0 320 0C302.3 0 288 14.33 288 31.1V64H160V31.1C160 14.33 145.7 0 128 0C110.3 0 96 14.33 96 31.1V64H48C21.49 64 0 85.49 0 112V192H448V112C448 85.49 426.5 64 400 64Z" fill="#2A4397"/>
<path opacity="0.4" d="M0 192V464C0 490.5 21.5 512 48 512H400C426.5 512 448 490.5 448 464V192H0ZM128 432C128 440.8 120.8 448 112 448H80C71.16 448 64 440.8 64 432V400C64 391.2 71.16 384 80 384H112C120.8 384 128 391.2 128 400V432ZM128 304C128 312.8 120.8 320 112 320H80C71.16 320 64 312.8 64 304V272C64 263.2 71.16 256 80 256H112C120.8 256 128 263.2 128 272V304ZM256 432C256 440.836 248.838 448 240 448H208C199.2 448 192 440.8 192 432V400C192 391.2 199.2 384 208 384H240C248.838 384 256 391.164 256 400V432ZM256 304C256 312.836 248.838 320 240 320H208C199.2 320 192 312.8 192 304V272C192 263.2 199.2 256 208 256H240C248.8 256 256 263.2 256 272V304ZM384 432C384 440.836 376.838 448 368 448H336C327.164 448 320 440.836 320 432V400C320 391.164 327.164 384 336 384H368C376.838 384 384 391.164 384 400V432ZM384 304C384 312.836 376.838 320 368 320H336C327.2 320 320 312.8 320 304V272C320 263.2 327.2 256 336 256H368C376.8 256 384 263.2 384 272V304Z" fill="#2A4397"/>
</g>
<defs>
<clipPath id="clip0_174_17">
<rect width="448" height="512" fill="white"/>
</clipPath>
</defs>
</svg>
