<svg width="448" height="512" viewBox="0 0 448 512" fill="none" xmlns="http://www.w3.org/2000/svg">
<g clip-path="url(#clip0_174_14)">
<path d="M400 64H352V31.1C352 14.33 337.7 0 320 0C302.3 0 288 14.33 288 31.1V64H160V31.1C160 14.33 145.7 0 128 0C110.3 0 96 14.33 96 31.1V64H48C21.49 64 0 85.49 0 112V192H448L448 112C448 85.49 426.5 64 400 64Z" fill="#2A4397"/>
<path opacity="0.4" d="M0 192L0.0002 464C0.0002 490.5 21.5002 512 48.0002 512H400C426.5 512 448 490.5 448 464L448 192H0ZM384 336C384 344.75 376.75 352 368.9 352H80.9C71.25 352 64 344.8 64 336V272C64 263.3 71.25 256 80 256H368C376.8 256 384 263.3 384 272V336Z" fill="#2A4397"/>
</g>
<defs>
<clipPath id="clip0_174_14">
<rect width="448" height="512" fill="white"/>
</clipPath>
</defs>
</svg>
