<svg width="512" height="512" viewBox="0 0 512 512" fill="none" xmlns="http://www.w3.org/2000/svg">
<g clip-path="url(#clip0_174_11)">
<path d="M0 405.3V448C0 483.25 85.1 512 192 512C297.1 512 384 483.25 384 448V405.25C342.8 434.4 267.3 448 192 448C116.7 448 41.25 434.4 0 405.3ZM0 300.4V352C0 387.25 85.1 416 192 416C297.1 416 384 387.25 384 352V300.4C342.8 334.4 267.1 352 192 352C116.9 352 41.25 334.4 0 300.4ZM192 320C297.1 320 384 284.25 384 240C384 195.75 297.1 160 192 160C85.1 160 0 195.8 0 240C0 284.2 85.1 320 192 320Z" fill="#2A4397"/>
<path opacity="0.4" d="M320 128C425.1 128 512 99.25 512 64C512 28.75 426 0 320 0C213.1 0 128 28.75 128 64C128 99.25 213.1 128 320 128ZM416 311.4C473.3 300.2 512 279.8 512 256V213.2C488.75 229.7 454.75 240.83 416 247.7V311.4ZM411.2 216.2C471.3 205.5 512 184.2 512 160V117.2C476.5 142.33 415.5 155.83 351.2 159.08C380.8 173.4 402.5 192.6 411.2 216.2Z" fill="#2A4397"/>
</g>
<defs>
<clipPath id="clip0_174_11">
<rect width="512" height="512" fill="white"/>
</clipPath>
</defs>
</svg>
