<svg width="384" height="512" viewBox="0 0 384 512" fill="none" xmlns="http://www.w3.org/2000/svg">
<g clip-path="url(#clip0_174_8)">
<path d="M256 0V128H384L256 0ZM304 224H80C71.13 224 64 231.1 64 240V336C64 344.9 71.13 352 80 352H304C312.875 352 320 344.875 320 336V240C320 231.1 312.9 224 304 224ZM288 320H96V256H288V320ZM312 416H232C227.6 416 224 419.6 224 424V440C224 444.375 227.625 448 232 448H312C316.375 448 320 444.375 320 440V424C320 419.6 316.4 416 312 416Z" fill="#2A4397"/>
<path opacity="0.4" d="M256 128V0H48C21.49 0 0 21.49 0 48V464C0 490.5 21.49 512 48 512H336C362.51 512 384 490.51 384 464V128H256ZM64 72C64 67.63 67.63 64 72 64H152C156.4 64 160 67.63 160 72V88C160 92.38 156.4 96 152 96H72C67.63 96 64 92.38 64 88V72ZM64 136C64 131.6 67.63 128 72 128H152C156.4 128 160 131.6 160 136V152C160 156.4 156.4 160 152 160H72C67.63 160 64 156.4 64 152V136ZM320 440C320 444.375 316.375 448 312 448H232C227.6 448 224 444.4 224 440V424C224 419.625 227.625 416 232 416H312C316.375 416 320 419.625 320 424V440ZM320 336C320 344.875 312.875 352 304 352H80C71.13 352 64 344.9 64 336V240C64 231.1 71.13 224 80 224H304C312.9 224 320 231.1 320 240V336Z" fill="#2A4397"/>
</g>
<defs>
<clipPath id="clip0_174_8">
<rect width="384" height="512" fill="white"/>
</clipPath>
</defs>
</svg>
