<svg width="576" height="512" viewBox="0 0 576 512" fill="none" xmlns="http://www.w3.org/2000/svg">
<g clip-path="url(#clip0_174_5)">
<path d="M80 160H304C312.8 160 320 152.8 320 144C320 135.2 312.8 128 304 128H80C71.16 128 64 135.2 64 144C64 152.8 71.16 160 80 160ZM176 320H80C71.16 320 64 327.2 64 336C64 344.8 71.16 352 80 352H176C184.8 352 192 344.8 192 336C192 327.2 184.8 320 176 320ZM240 224H80C71.16 224 64 231.2 64 240C64 248.8 71.16 256 80 256H240C248.8 256 256 248.8 256 240C256 231.2 248.8 224 240 224ZM432 224C352.5 224 288 288.5 288 368C288 447.5 352.46 512 432 512C511.5 512 576 447.5 576 368C576 288.5 511.5 224 432 224ZM499.3 341.1L424.64 415.76C421.515 418.885 417.421 420.448 413.33 420.448C409.239 420.448 405.142 418.886 402.02 415.76L364.68 378.43C358.43 372.18 358.43 362.05 364.68 355.81C370.93 349.57 381.06 349.56 387.3 355.81L413.33 381.83L476.67 318.49C482.92 312.24 493.05 312.24 499.29 318.49C505.53 324.74 505.6 335.7 499.3 341.1Z" fill="#2A4397"/>
<path opacity="0.4" d="M384 198.8V64C384 28.65 355.35 0 320 0H64C28.65 0 0 28.65 0 64V448C0 483.35 28.65 512 64 512H320C323.357 512 326.548 511.513 329.766 511.015C285.2 479.1 256 426.9 256 368C256 287.6 310.2 219.8 384 198.8ZM176 352H80C71.16 352 64 344.8 64 336C64 327.2 71.16 320 80 320H176C184.8 320 192 327.2 192 336C192 344.8 184.8 352 176 352ZM240 256H80C71.16 256 64 248.8 64 240C64 231.2 71.16 224 80 224H240C248.8 224 256 231.2 256 240C256 248.8 248.8 256 240 256ZM80 160C71.16 160 64 152.8 64 144C64 135.2 71.16 128 80 128H304C312.8 128 320 135.2 320 144C320 152.8 312.8 160 304 160H80Z" fill="#2A4397"/>
</g>
<defs>
<clipPath id="clip0_174_5">
<rect width="576" height="512" fill="white"/>
</clipPath>
</defs>
</svg>
