<svg width="576" height="512" viewBox="0 0 576 512" fill="none" xmlns="http://www.w3.org/2000/svg">
<g clip-path="url(#clip0_174_2)">
<path d="M224 80C135.63 80 64 151.63 64 240C64 328.36 135.63 400 224 400C312.37 400 384 328.36 384 240C384 151.6 312.4 80 224 80ZM224 304C188.65 304 160 275.35 160 240C160 204.65 188.65 176 224 176C259.35 176 288 204.65 288 240C288 275.3 259.3 304 224 304ZM464 128C437.5 128 416 149.5 416 176C416 196.87 429.4 214.45 448 221.06V336C448 344.844 455.156 352 464 352C472.844 352 480 344.844 480 336V221.1C498.6 214.4 512 196.9 512 176C512 149.5 490.5 128 464 128Z" fill="#2A4397"/>
<path opacity="0.4" d="M512 0H64C28.65 0 0 28.65 0 64V416C0 451.35 28.65 480 64 480H80L96 512H160L176 480H400L416 512H480L496 480H512C547.35 480 576 451.35 576 416V64C576 28.65 547.3 0 512 0ZM224 400C135.63 400 64 328.37 64 240C64 151.63 135.63 80 224 80C312.37 80 384 151.63 384 240C384 328.37 312.4 400 224 400ZM480 221.1V336C480 344.844 472.844 352 464 352C455.156 352 448 344.8 448 336V221.1C429.4 214.4 416 196.9 416 176C416 149.5 437.5 128 464 128C490.5 128 512 149.5 512 176C512 196.9 498.6 214.4 480 221.1Z" fill="#2A4397"/>
</g>
<defs>
<clipPath id="clip0_174_2">
<rect width="576" height="512" fill="white"/>
</clipPath>
</defs>
</svg>
