<svg width="512" height="448" viewBox="0 0 512 448" fill="none" xmlns="http://www.w3.org/2000/svg">
<path d="M111.1 143.1C123.6 130.6 143.85 130.6 156.35 143.1L208 194.8L281.38 121.42C287.6 115.1 295.8 112 304 112C312.2 112 320.38 115.125 326.62 121.375L411.31 206.065L452.69 164.685C463.4 153.1 480 162.7 480 176V304C480 312.837 472.837 320 464 320H336.9C322.65 320 315.51 302.77 325.59 292.69L366.97 251.31L304 189.3L230.6 262.6C218.1 275.1 197.85 275.1 185.35 262.6L111.1 189.2C99.5 176.8 99.5 156.5 111.1 143.1Z" fill="#2A4397"/>
<path opacity="0.4" d="M480 384H64V31.1C64 14.33 49.67 0 32 0C14.33 0 0 14.33 0 31.1V416C0 433.6 14.4 448 32 448H480C497.7 448 512 433.7 512 416C512 398.3 497.7 384 480 384Z" fill="#2A4397"/>
</svg>
