<svg width="512" height="448" viewBox="0 0 512 448" fill="none" xmlns="http://www.w3.org/2000/svg">
<path d="M111.1 272C124.5 284.5 144.8 284.5 157.2 272L208 221.3L265.38 278.68C271.6 284.9 279.8 288 288 288C296.2 288 304.38 284.875 310.62 278.625L464.02 125.225C476.51 112.735 476.51 92.4751 464.021 79.9751C451.521 67.4751 431.261 67.4751 418.771 79.9733L288 210.8L230.6 153.4C218.1 140.9 197.85 140.9 185.35 153.4L111.1 226.8C99.5 239.2 99.5 259.5 111.1 272Z" fill="#2A4397"/>
<path opacity="0.4" d="M480 384H64V31.1C64 14.33 49.67 0 32 0C14.33 0 0 14.33 0 31.1V416C0 433.6 14.4 448 32 448H480C497.7 448 512 433.7 512 416C512 398.3 497.7 384 480 384Z" fill="#2A4397"/>
</svg>
