<svg width="25" height="25" viewBox="0 0 25 25" fill="none" xmlns="http://www.w3.org/2000/svg">
<g clip-path="url(#clip0_192_2)">
<path d="M18.1544 10.3418L11.9044 16.5918C11.6359 16.8604 11.2892 16.9922 10.9376 16.9922C10.5861 16.9922 10.2374 16.8594 9.97034 16.5924L6.84534 13.4674C6.31262 12.9332 6.31262 12.0665 6.84534 11.5323C7.37952 10.9981 8.24622 10.9981 8.7804 11.5323L10.9376 13.6914L16.2208 8.4082C16.755 7.87402 17.6217 7.87402 18.1559 8.4082C18.6866 8.94043 18.6866 9.80957 18.1544 10.3418Z" fill="#2A4397"/>
<path opacity="0.4" d="M12.5 0C5.5957 0 0 5.5957 0 12.5C0 19.4043 5.5957 25 12.5 25C19.4043 25 25 19.4043 25 12.5C25 5.5957 19.4043 0 12.5 0ZM18.1543 10.3418L11.9043 16.5918C11.6357 16.8604 11.2891 16.9922 10.9375 16.9922C10.5859 16.9922 10.2373 16.8594 9.97021 16.5924L6.84521 13.4674C6.3125 12.9332 6.3125 12.0665 6.84521 11.5323C7.37939 10.9981 8.24609 10.9981 8.78027 11.5323L10.9375 13.6914L16.2207 8.4082C16.7549 7.87402 17.6216 7.87402 18.1558 8.4082C18.6865 8.94043 18.6865 9.80957 18.1543 10.3418Z" fill="#2A4397"/>
</g>
<defs>
<clipPath id="clip0_192_2">
<rect width="25" height="25" fill="white"/>
</clipPath>
</defs>
</svg>
