<svg width="512" height="512" viewBox="0 0 512 512" fill="none" xmlns="http://www.w3.org/2000/svg">
<g clip-path="url(#clip0_178_23)">
<path d="M256 160C278.09 160 296 142.09 296 120C296 97.91 278.1 80 256 80C233.9 80 216 97.91 216 120C216 142.09 233.9 160 256 160ZM391.1 185.4C387.444 172.65 374.13 165.15 361.43 168.93L302.18 185.87C272.01 194.493 240.03 194.493 209.87 185.87L150.6 168.9C137.9 165.2 124.6 172.7 120.9 185.4C117.2 198.1 124.634 211.43 137.38 215.06L196.63 232.03C200.4 233.1 204.2 233.6 208 234.4V296.69L177.36 384.03C172.969 396.53 179.548 410.22 192.05 414.62C194.7 415.6 197.4 416 200 416C209.906 416 219.19 409.812 222.64 399.94L248.49 329.29C251.052 322.288 260.95 322.288 263.52 329.29L289.37 399.94C292.8 409.8 302.1 416 312 416C314.641 416 317.312 415.563 319.953 414.656C332.453 410.25 339.033 396.566 334.643 384.066L304 296.7V234.4C307.8 233.6 311.6 233.1 315.3 232L374.55 215.06C387.3 211.4 394.7 198.2 391.1 185.4Z" fill="#2A4397"/>
<path opacity="0.4" d="M256 0C114.6 0 0 114.6 0 256C0 397.4 114.6 512 256 512C397.4 512 512 397.4 512 256C512 114.6 397.4 0 256 0ZM256 80C278.09 80 296 97.91 296 120C296 142.09 278.1 160 256 160C233.9 160 216 142.1 216 120C216 97.9 233.9 80 256 80ZM374.6 215.1L315.3 232C311.6 233.1 307.8 233.6 304 234.4V296.72L334.64 384.06C339.031 396.56 332.452 410.25 319.95 414.65C317.3 415.6 314.6 416 312 416C302.094 416 292.81 409.812 289.36 399.94L263.51 329.29C260.948 322.288 251.05 322.288 248.48 329.29L222.63 399.94C219.2 409.8 209.9 416 200 416C197.359 416 194.688 415.563 192.047 414.656C179.547 410.25 172.967 396.566 177.357 384.066L208 296.7V234.4C204.2 233.6 200.4 233.1 196.7 232L137.4 215.1C124.7 211.4 117.3 198.2 120.9 185.4C124.5 172.6 137.9 165.2 150.6 168.9L209.85 185.84C240.02 194.463 272 194.463 302.16 185.84L361.41 168.9C374.11 165.119 387.43 172.619 391.08 185.37C394.7 198.2 387.3 211.4 374.6 215.1Z" fill="#2A4397"/>
</g>
<defs>
<clipPath id="clip0_178_23">
<rect width="512" height="512" fill="white"/>
</clipPath>
</defs>
</svg>
