<svg width="576" height="512" viewBox="0 0 576 512" fill="none" xmlns="http://www.w3.org/2000/svg">
<g clip-path="url(#clip0_178_29)">
<path d="M51.2601 255.5C38.2701 252.861 29.8501 240.22 32.4901 227.23C34.7101 215.8 45.3901 208 56.9901 208H57.9899C61.3049 208 63.9899 205.314 63.9899 202.001V182.001C63.9901 178.7 61.3001 176 57.9901 176C29.4901 176 4.10007 196.41 0.480069 224.63C0.156469 227 -0.00383053 229.4 6.94747e-05 231.8C-0.0390305 262.8 25.0101 287.1 55.9801 288H95.9901C95.9999 277.25 97.0711 266.52 99.2991 256L55.9791 256.004C54.3901 256 52.8201 255.8 51.2601 255.5ZM431.1 256C422.264 256 415.1 263.164 415.1 272C415.1 280.836 423.2 288 431.1 288C439 288 447.1 280.836 447.1 272C447.1 263.164 440.8 256 431.1 256ZM339.3 5.781C328.8 1.965 317.7 0.00780327 306.5 3.27476e-06C253.5 -0.0136967 210.5 42.96 210.5 95.98C210.496 108.51 212.947 120.92 217.713 132.51C230.2 129.5 243.1 127.1 255.1 128H383.1C387.35 128.033 391.727 128.317 395.94 128.87C414.1 79.01 389.1 23.91 339.3 5.781Z" fill="#2A4397"/>
<path opacity="0.4" d="M559.1 224L529.57 224.003C520.799 204.163 508.11 186.293 492.22 171.523L511.1 96L479.1 96.0063C449.7 96.0063 423.71 109.466 406.1 130.286C399.4 129.2 391.9 128 383.1 128H255.1C161.2 128 95.9898 206.9 95.9898 288C95.9498 338.4 119.7 385.8 160 416L159.99 480C159.99 497.67 174.32 512 191.99 512H223.1C240.77 512 255.1 497.67 255.1 480L255.102 448H383.102L383.099 480C383.099 497.67 397.429 512 415.099 512H447.099C464.769 512 479.099 497.67 479.099 480L479.099 415.27C490.919 406.338 501.489 395.83 510.419 384.01L559.1 384C568.8 384 576 376.8 576 368V240C576 231.2 568.8 224 559.1 224ZM431.1 288C422.264 288 415.1 280.836 415.1 272C415.1 263.164 423.2 256 431.1 256C439 256 447.1 263.164 447.1 272C447.1 280.836 440.8 288 431.1 288Z" fill="#2A4397"/>
</g>
<defs>
<clipPath id="clip0_178_29">
<rect width="576" height="512" fill="white"/>
</clipPath>
</defs>
</svg>
