<svg width="576" height="512" viewBox="0 0 576 512" fill="none" xmlns="http://www.w3.org/2000/svg">
<path d="M343.1 416H232.9C227.4 406.5 224 395.8 224 384C224 348.62 252.62 320 288 320C293.625 320 299 321 304.25 322.375L412.75 177.575C420.75 166.955 435.75 164.825 446.37 172.7C456.99 180.7 459.12 195.7 451.245 206.33L342.645 351.13C348.5 360.8 352 371.9 352 384C352 395.8 348.6 406.5 343.1 416Z" fill="#2A4397"/>
<path opacity="0.4" d="M288 32C129 32 0 161 0 320C0 372.75 14.25 422.3 39 464.8C44.625 474.425 55.38 480.05 66.5 480.05H509.5C520.62 480.05 531.38 474.425 537 464.8C561.8 422.3 576 372.8 576 320C576 161 447 32 288 32ZM288 96C305.62 96 320 110.38 320 128C320 145.62 305.62 160 288 160C270.38 160 256 145.62 256 128C256 110.38 270.4 96 288 96ZM96 384C78.38 384 64 369.62 64 352C64 334.38 78.38 320 96 320C113.62 320 128 334.38 128 352C128 369.62 113.6 384 96 384ZM144 224C126.38 224 112 209.62 112 192C112 174.38 126.38 160 144 160C161.62 160 176 174.38 176 192C176 209.62 161.6 224 144 224ZM343.1 416H232.9C227.4 406.5 224 395.8 224 384C224 348.62 252.62 320 288 320C293.625 320 299 321 304.25 322.375L412.75 177.575C420.75 166.955 435.75 164.825 446.37 172.7C456.99 180.7 459.12 195.7 451.245 206.33L342.645 351.13C348.5 360.8 352 371.9 352 384C352 395.8 348.6 406.5 343.1 416ZM480 384C462.38 384 448.08 369.62 448.08 352C448.08 334.38 462.46 320 480.08 320C497.7 320 512 334.4 512 352C512 369.6 497.6 384 480 384Z" fill="#2A4397"/>
</svg>
