<svg width="512" height="512" viewBox="0 0 512 512" fill="none" xmlns="http://www.w3.org/2000/svg">
<g clip-path="url(#clip0_178_26)">
<path d="M339.2 334.4C334.5 340.7 327.3 344 319.1 344C314.084 344 309.04 342.438 304.71 339.188L240.71 291.188C235.6 286.7 232 279.6 232 272V152C232 138.8 242.8 128 256 128C269.2 128 280 138.75 280 152V260L334.41 300.81C345 308.8 347.2 323.8 339.2 334.4Z" fill="#2A4397"/>
<path opacity="0.4" d="M255.1 0C113.7 0 -0.899902 114.6 -0.899902 256C-0.899902 397.4 113.7 512 255.1 512C396.5 512 510.2 397.4 510.2 256C511.1 114.6 397.4 0 255.1 0ZM339.2 334.4C334.5 340.7 327.3 344 319.1 344C314.084 344 309.04 342.438 304.71 339.188L240.71 291.188C235.6 286.7 232 279.6 232 272V152C232 138.8 242.8 128 256 128C269.2 128 280 138.75 280 152V260L334.41 300.81C345 308.8 347.2 323.8 339.2 334.4Z" fill="#2A4397"/>
</g>
<defs>
<clipPath id="clip0_178_26">
<rect width="512" height="512" fill="white"/>
</clipPath>
</defs>
</svg>
