<svg width="448" height="512" viewBox="0 0 448 512" fill="none" xmlns="http://www.w3.org/2000/svg">
<path d="M128 32H32C14.31 32 0 46.31 0 64V160C0 177.69 14.31 192 32 192C49.69 192 64 177.69 64 160V96H128C145.69 96 160 81.69 160 64C160 46.31 145.7 32 128 32ZM416 320C398.31 320 384 334.31 384 352V416H320C302.31 416 288 430.31 288 448C288 465.69 302.31 480 320 480H416C433.69 480 448 465.69 448 448V352C448 334.3 433.7 320 416 320Z" fill="#2A4397"/>
<path opacity="0.4" d="M416 32H320C302.31 32 288 46.31 288 64C288 81.69 302.31 96 320 96H384V160C384 177.69 398.31 192 416 192C433.69 192 448 177.69 448 160V64C448 46.31 433.7 32 416 32ZM128 416H64V352C64 334.31 49.69 320 32 320C14.31 320 0 334.31 0 352V448C0 465.69 14.31 480 32 480H128C145.69 480 160 465.69 160 448C160 430.31 145.7 416 128 416Z" fill="#2A4397"/>
</svg>
