<svg width="384" height="512" viewBox="0 0 384 512" fill="none" xmlns="http://www.w3.org/2000/svg">
<g clip-path="url(#clip0_194_22)">
<path d="M336 0.0146484H48C21.49 0.0146484 0 21.5046 0 48.0146V480.015C0 497.685 14.33 512.015 32 512.015L144 512.007V432.017C144 405.507 165.49 384.007 192 384.007C218.51 384.007 240 405.507 240 432.017V512.007L352 512.015C369.67 512.015 384 497.685 384 480.015V48.0146C384 21.5001 362.5 0.0146484 336 0.0146484ZM160 304C160 312.836 152.836 320 144 320H112C103.164 320 96 312.836 96 304V272C96 263.162 103.164 256 112 256H144C152.836 256 160 263.167 160 272V304ZM160 208C160 216.836 152.836 224 144 224H112C103.164 224 96 216.836 96 208V176C96 167.162 103.164 160 112 160H144C152.836 160 160 167.167 160 176V208ZM160 112C160 120.836 152.836 127.1 144 127.1H112C103.164 127.1 96 119.941 96 112V80.0001C96 71.1621 103.164 64.0001 112 64.0001H144C152.836 64.0001 160 71.1621 160 80.0001V112ZM288 304C288 312.836 280.836 320 272 320H240C231.164 320 224 312.836 224 304V272C224 263.162 231.164 256 240 256H272C280.836 256 288 263.167 288 272V304ZM288 208C288 216.836 280.836 224 272 224H240C231.164 224 224 216.836 224 208V176C224 167.162 231.164 160 240 160H272C280.836 160 288 167.167 288 176V208ZM288 112C288 120.836 280.836 127.1 272 127.1H240C231.164 127.1 224 119.941 224 112V80.0001C224 71.1621 231.164 64.0001 240 64.0001H272C280.836 64.0001 288 71.1621 288 80.0001V112Z" fill="#2A4397"/>
<path opacity="0.4" d="M144 256H112C103.164 256 96 263.167 96 272V304C96 312.836 103.164 320 112 320H144C152.836 320 160 312.836 160 304V272C160 263.2 152.8 256 144 256ZM144 160H112C103.164 160 96 167.167 96 176V208C96 216.836 103.164 224 112 224H144C152.836 224 160 216.836 160 208V176C160 167.2 152.8 160 144 160ZM144 64.02H112C103.164 64.02 96 71.182 96 80.02V112.02C96 120.856 103.164 127.12 112 127.12H144C152.836 127.12 160 119.961 160 112.02V80.02C160 71.18 152.8 64.02 144 64.02ZM272 256H240C231.164 256 224 263.167 224 272V304C224 312.836 231.164 320 240 320H272C280.836 320 288 312.836 288 304V272C288 263.2 280.8 256 272 256ZM272 160H240C231.164 160 224 167.167 224 176V208C224 216.836 231.164 224 240 224H272C280.836 224 288 216.836 288 208V176C288 167.2 280.8 160 272 160ZM272 64.02H240C231.164 64.02 224 71.182 224 80.02V112.02C224 120.856 231.164 127.12 240 127.12H272C280.836 127.12 288 119.961 288 112.02V80.02C288 71.18 280.8 64.02 272 64.02Z" fill="#2A4397"/>
</g>
<defs>
<clipPath id="clip0_194_22">
<rect width="384" height="512" fill="white"/>
</clipPath>
</defs>
</svg>
