<svg width="512" height="512" viewBox="0 0 512 512" fill="none" xmlns="http://www.w3.org/2000/svg">
<path d="M480 192C480 173.72 465.05 160 448 160C439.812 160 431.62 163.125 425.38 169.375L192 402.8L86.63 297.4C80.38 291.1 72.19 288 64 288C46.95 288 32 301.73 32 320C32 328.188 35.125 336.38 41.375 342.62L169.375 470.62C175.6 476.9 183.8 480 192 480C200.2 480 208.38 476.875 214.62 470.625L470.62 214.625C476.9 208.4 480 200.2 480 192Z" fill="#2A4397"/>
<path opacity="0.4" d="M169.4 246.6C175.6 252.9 183.8 256 192 256C200.2 256 208.38 252.875 214.62 246.625L374.62 86.625C380.9 80.38 384 72.19 384 64C384 45.72 369.05 32 352 32C343.812 32 335.62 35.125 329.38 41.375L192 178.8L134.6 121.4C128.4 115.1 120.2 112 112 112C94.95 112 80 125.73 80 144C80 152.188 83.125 160.38 89.375 166.62L169.4 246.6Z" fill="#2A4397"/>
</svg>
