<svg width="512" height="512" viewBox="0 0 512 512" fill="none" xmlns="http://www.w3.org/2000/svg">
<g clip-path="url(#clip0_194_8)">
<path d="M384 0V128H512L384 0ZM247.4 242.3C236.2 230.9 234.3 229.5 231.7 220.8C230.8 217.9 229.9 214.2 228.5 209C227.8 206.4 226.9 204 225.6 201.8C221.8 195.1 215.5 190.1 207.9 188C195.1 184.5 191.3 183.8 186.6 180C184.8 178.5 182.8 176.5 179.1 173.7C178.6 172.3 176.1 170.6 175.1 168.8C172.6 166.2 169.7 164.4 166.6 162.1C165.8 162.6 165.1 162.3 164.3 162C161.2 160.8 157.8 160 154.4 160C154.417 160 154.382 160 154.4 160C151.9 160 149.4 160.3 146.9 161C147.144 160.934 147.381 160.961 147.625 160.906C147.4 160.1 147.1 160.9 146.9 161C136.7 163.8 132.3 165.1 127.1 165.1C122.741 165.1 118.403 163.725 108.28 160.975C106.7 160.3 104.1 160 101.6 160C101.617 160 101.582 160 101.6 160C98.1799 160 94.8599 160.8 91.6799 162C90.8899 162.3 90.1599 162.6 89.3999 162.1C86.3099 164.4 83.3699 166.2 80.8899 168.8C65.8899 183.9 68.3899 182.4 48.1399 188C38.0199 190.8 30.0999 198.8 27.4799 209C25.4199 216.8 24.3799 221.3 23.0499 224.6C20.8399 230.3 17.8999 232.8 8.60588 242.3C6.73088 244.1 5.18788 246.2 3.90588 248.5C0.062381 255.2 -1.03812 263.3 1.02388 271.1C6.52388 291.72 6.39888 288.85 1.02388 309.48C-1.03812 317.168 0.0622809 325.28 3.90588 332.02C5.18688 334.266 6.73088 336.36 8.60588 338.235C19.6659 349.575 21.6959 351.005 24.3259 359.715C25.2009 362.617 26.1059 366.328 27.4809 371.485C30.1059 381.865 38.0209 389.865 48.1509 392.605C55.3389 394.543 58.2109 395.293 59.8309 395.808C61.4509 396.323 61.8339 396.605 64.0189 397.605V512L128.009 480L191.999 512V397.6C196.249 395.6 193.5 396.475 207.869 392.6C215.461 390.538 221.779 385.522 225.579 378.76C226.845 376.51 227.836 374.065 228.492 371.471C229.867 366.283 230.795 362.557 231.661 359.651C234.255 350.924 236.21 349.561 247.361 338.221C254.861 330.721 257.741 319.721 254.986 309.471C249.611 288.851 249.486 291.721 254.986 271.091C257.7 260.8 254.9 249.8 247.4 242.3ZM128 352C123.578 352 119.259 351.555 115.09 350.703C106.754 349 99.0099 345.676 92.1999 341.078C85.3929 336.476 79.5199 330.608 74.9199 323.798C68.0399 313.6 64.0199 301.3 64.0199 288C64.0199 274.7 68.0409 262.42 74.9399 252.2C79.5359 245.391 85.4099 239.52 92.2199 234.92C99.0289 230.322 106.77 226.998 115.11 225.295C119.3 224.4 123.6 224 128 224C163.37 224 191.99 252.62 191.99 288C191.99 323.38 163.4 352 128 352Z" fill="#2A4397"/>
<path opacity="0.4" d="M384 128V0H176C149.5 0 128 21.49 128 48L128.001 132.94C129.733 132.553 131.805 131.928 134.68 131.147L138.475 130.116C143.661 128.71 149.015 127.995 154.375 127.995C170.605 127.995 186.475 134.671 197.925 146.315L200.667 149.108C202.837 151.327 204.355 152.975 205.694 154.21C207.385 154.765 209.503 155.276 212.397 156.065L216.247 157.12C237.347 162.901 253.797 179.54 259.387 200.69L260.511 204.942C261.302 207.95 261.804 210.122 262.365 211.852C263.605 213.262 265.285 214.856 267.574 217.176L269.986 219.621C285.546 235.391 291.606 258.101 285.866 279.501L285.014 282.676C284.121 286.004 283.418 288.321 283.03 290.235C283.4 292 284 294.1 284.8 297.1L285.884 301.225C291.595 322.515 285.501 345.375 270.164 360.705L267.289 363.619C265.135 365.799 263.535 367.322 262.34 368.666C261.779 370.412 261.274 372.607 260.479 375.643L259.497 379.37C254.749 398.14 241.477 413.43 223.977 420.84L223.1 512H464C490.51 512 512 490.51 512 464V128H384Z" fill="#2A4397"/>
</g>
<defs>
<clipPath id="clip0_194_8">
<rect width="512" height="512" fill="white"/>
</clipPath>
</defs>
</svg>
