<svg width="640" height="512" viewBox="0 0 640 512" fill="none" xmlns="http://www.w3.org/2000/svg">
<path d="M640 256C640 291.35 618.51 320 592 320C578.12 320 565.72 312.055 557.9 299.46C552.2 292.6 544.8 288 536.4 288C522.9 288 512 298.9 512 312.4V416C512 433.67 497.67 448 480 448H376.4C362.9 448 352 437.1 352 423.6C352 415.202 356.555 407.73 363.46 402.96C376.1 394.3 384 381.9 384 368C384 341.49 355.35 320 320 320C284.65 320 256 341.49 256 368C256 381.88 263.943 394.28 276.54 402.1C283.4 407.8 288 415.2 288 423.6C288 437.1 277.1 448 263.6 448H160C142.33 448 128 433.67 128 416V312.4C128 298.9 117.1 288 103.6 288C95.2399 288 87.7799 292.6 82.0999 299.5C74.2799 312.1 61.8799 320 47.9999 320C21.4899 320 0.899902 291.35 0.899902 256C0.899902 220.65 21.4899 191.1 47.9999 191.1C61.8799 191.1 74.2799 199.043 82.0999 211.64C86.8789 218.546 94.3499 223.1 102.74 223.1C117.1 223.1 128 213.1 128 199.6V95.1001C128 78.3301 142.3 63.1001 160 63.1001H263.6C277.1 63.1001 288 74.9001 288 88.3601C288 96.7581 283.445 104.23 276.54 109C263.9 117.7 256 130.1 256 143.1C256 170.5 284.7 192 320 192C355.3 192 384 170.51 384 144C384 130.12 376.057 117.72 363.46 109.9C356.6 104.2 352 96.7601 352 88.3601C352 74.9101 362.91 64.0001 376.36 64.0001L480 63.1001C497.67 63.1001 512 77.4301 512 95.1001V198.7C512 212.15 522.91 223.06 536.36 223.06C544.756 223.06 552.23 218.505 557 211.6C565.7 199.9 578.1 191.1 592 191.1C618.5 191.1 640 220.7 640 256Z" fill="#2A4397"/>
</svg>
