<svg width="512" height="512" viewBox="0 0 512 512" fill="none" xmlns="http://www.w3.org/2000/svg">
<path d="M480 32H32C14.38 32 0 46.38 0 64V192C0 209.62 14.38 224 32 224H480C497.62 224 512 209.62 512 192V64C512 46.38 497.6 32 480 32ZM352 152C338.75 152 328 141.25 328 128C328 114.75 338.8 104 352 104C365.2 104 376 114.8 376 128C376 141.2 365.3 152 352 152ZM416 152C402.75 152 392 141.25 392 128C392 114.75 402.8 104 416 104C429.2 104 440 114.8 440 128C440 141.2 429.3 152 416 152ZM416 360C402.75 360 392 370.75 392 384C392 397.25 402.75 408 416 408C429.26 408 440 397.25 440 384C440 370.75 429.3 360 416 360Z" fill="#2A4397"/>
<path opacity="0.4" d="M480 288H32C14.38 288 0 302.38 0 320V448C0 465.62 14.38 480 32 480H480C497.62 480 512 465.62 512 448V320C512 302.4 497.6 288 480 288ZM352 408C338.75 408 328 397.25 328 384C328 370.75 338.75 360 352 360C365.25 360 376 370.75 376 384C376 397.25 365.3 408 352 408ZM416 408C402.75 408 392 397.25 392 384C392 370.75 402.75 360 416 360C429.25 360 440 370.75 440 384C440 397.25 429.3 408 416 408ZM416 152C429.25 152 440 141.25 440 128C440 114.75 429.3 104 416 104C402.7 104 392 114.8 392 128C392 141.2 402.8 152 416 152Z" fill="#2A4397"/>
</svg>
