<svg width="512" height="512" viewBox="0 0 512 512" fill="none" xmlns="http://www.w3.org/2000/svg">
<path d="M360 255.1C360 268.36 349.26 278.2 336.9 278.2H280V336C280 349.26 269.26 359.1 256.9 359.1C243.63 359.1 233.8 348.36 233.8 336V279.1H176C162.73 279.1 152.9 268.36 152.9 256C152 242.7 162.7 232 176 232H232V175.1C232 161.84 242.74 152 255.1 152C267.46 152 280 162.7 280 175.1V232H336C349.3 232 360 242.7 360 255.1Z" fill="#2A4397"/>
<path opacity="0.4" d="M466.5 83.69L274.5 3.68C269.6 1.656 261.3 0 256.1 0C250.8 0 242.5 1.656 237.6 3.688L45.6 83.698C27.69 91.08 16 108.6 16 127.1C16 385.2 205.2 512 255.1 512C307.1 512 496 383.8 496 127.1C496 108.6 484.3 91.08 466.5 83.69ZM336 279.1H280V336C280 349.26 269.26 359.1 256.9 359.1C243.63 359.1 233.8 348.36 233.8 336V279.1H176C162.73 279.1 152.9 268.36 152.9 256C152 242.7 162.7 232 176 232H232V175.1C232 161.84 242.74 152 255.1 152C267.46 152 280 162.7 280 175.1V232H336C349.26 232 359.1 242.74 359.1 255.1C359.1 267.46 349.3 279.1 336 279.1Z" fill="#2A4397"/>
</svg>
